<?xml version="1.0" standalone="no"?>
<!DOCTYPE svg PUBLIC "-//W3C//DTD SVG 20010904//EN"
 "http://www.w3.org/TR/2001/REC-SVG-20010904/DTD/svg10.dtd">
<svg version="1.0" xmlns="http://www.w3.org/2000/svg"
 width="125.000000pt" height="128.000000pt" viewBox="0 0 125.000000 128.000000"
 preserveAspectRatio="xMidYMid meet">

<g transform="translate(0.000000,128.000000) scale(0.100000,-0.100000)"
fill="#000000" stroke="none">
<path d="M501 1234 c-224 -48 -411 -236 -466 -469 -33 -136 -8 -272 77 -417
15 -27 23 -48 17 -48 -6 0 -7 -5 -4 -10 4 -6 10 -8 15 -5 5 3 12 0 16 -6 4 -8
3 -9 -4 -5 -7 4 -12 3 -12 -3 0 -19 119 -127 181 -164 107 -63 183 -82 334
-82 138 0 150 3 275 63 107 52 221 186 277 328 25 63 28 80 28 204 -1 116 -4
146 -25 210 -63 193 -242 358 -442 405 -77 18 -182 18 -267 -1z m317 -80 c78
-29 133 -67 199 -136 187 -199 185 -511 -6 -707 -87 -90 -212 -154 -316 -163
l-40 -3 -3 510 c-1 281 0 516 3 523 7 18 80 7 163 -24z m-328 12 c0 -2 -16
-28 -36 -57 -20 -30 -45 -74 -56 -99 -11 -24 -21 -46 -23 -48 -6 -6 -125 50
-125 59 0 17 89 83 155 115 66 32 85 39 85 30z m108 -113 l-3 -118 -75 3 c-41
2 -79 7 -83 12 -13 11 45 118 93 173 65 74 71 67 68 -70z m-312 -115 c38 -17
69 -32 70 -32 1 -1 -6 -46 -16 -101 l-16 -100 -112 -3 -112 -3 0 25 c0 63 81
246 109 246 5 0 40 -14 77 -32z m281 -58 l34 0 -3 -87 -3 -88 -99 -3 c-55 -1
-103 1 -107 5 -5 5 -4 40 2 78 15 113 12 109 82 101 33 -3 75 -6 94 -6z m-229
-329 c15 -109 15 -111 1 -111 -7 0 -41 -15 -76 -32 l-65 -33 -24 30 c-31 38
-64 125 -71 187 l-6 48 115 0 114 0 12 -89z m262 4 l0 -85 -49 0 c-26 0 -68
-3 -93 -6 -37 -5 -46 -3 -52 11 -10 27 -26 148 -20 157 3 4 52 8 110 8 l104 0
0 -85z m-8 -262 c-2 -57 -7 -103 -11 -103 -19 0 -89 73 -113 116 -46 85 -44
88 42 94 41 3 77 3 81 0 3 -3 3 -51 1 -107z m-198 43 c9 -23 32 -69 51 -100
32 -53 33 -57 12 -50 -68 21 -207 111 -207 134 0 9 97 60 116 60 6 0 19 -20
28 -44z"/>
<path d="M784 1080 c-11 -4 -33 -22 -47 -40 l-27 -32 0 -214 c0 -298 0 -299
194 -295 65 1 127 6 137 12 34 18 49 63 49 148 0 75 -2 83 -29 113 l-29 33
-136 3 -136 4 0 104 c0 103 0 105 26 114 37 14 44 6 44 -56 0 -82 17 -94 131
-94 79 0 90 2 85 16 -3 9 -6 17 -6 19 0 2 -43 42 -96 89 -96 86 -115 95 -160
76z m152 -148 c-42 -5 -56 4 -56 39 l0 31 42 -34 42 -33 -28 -3z m86 -183 c19
-10 20 -17 14 -92 -4 -45 -12 -87 -18 -94 -14 -17 -196 -18 -233 -1 -24 11
-25 15 -25 98 0 48 3 90 7 93 11 12 233 8 255 -4z"/>
<path d="M827 664 c-4 -4 -7 -16 -7 -26 0 -17 7 -19 83 -16 74 3 82 5 82 23 0
18 -8 20 -75 23 -42 1 -79 0 -83 -4z"/>
<path d="M845 430 c-120 -5 -120 -5 -120 -30 l0 -25 142 -3 c132 -2 143 -1
152 17 13 23 -10 52 -37 49 -9 -1 -71 -4 -137 -8z"/>
<path d="M805 319 c-80 -11 -103 -26 -86 -58 10 -17 21 -21 67 -21 56 0 116
18 129 40 7 11 -21 51 -34 49 -3 -1 -37 -6 -76 -10z"/>
<path d="M170 805 c-20 -24 -2 -35 60 -35 59 0 81 15 57 39 -16 16 -102 14
-117 -4z"/>
<path d="M440 805 c-20 -24 -2 -35 55 -35 30 0 57 5 60 10 13 21 -17 40 -60
40 -25 0 -48 -6 -55 -15z"/>
<path d="M172 548 c-21 -21 7 -38 63 -38 52 0 67 10 58 38 -6 16 -105 16 -121
0z"/>
<path d="M439 554 c-18 -22 3 -34 62 -34 48 0 68 17 46 39 -17 17 -92 14 -108
-5z"/>
</g>
</svg>
